<?xml version="1.0" encoding="UTF-8" standalone="no"?>
<!-- Created with Inkscape (http://www.inkscape.org/) -->

<svg
   xmlns:dc="http://purl.org/dc/elements/1.1/"
   xmlns:cc="http://creativecommons.org/ns#"
   xmlns:rdf="http://www.w3.org/1999/02/22-rdf-syntax-ns#"
   xmlns:svg="http://www.w3.org/2000/svg"
   xmlns="http://www.w3.org/2000/svg"
   xmlns:xlink="http://www.w3.org/1999/xlink"
   xmlns:sodipodi="http://sodipodi.sourceforge.net/DTD/sodipodi-0.dtd"
   xmlns:inkscape="http://www.inkscape.org/namespaces/inkscape"
   width="64px"
   height="64px"
   id="svg4087"
   version="1.1"
   inkscape:version="0.48.4 r9939"
   sodipodi:docname="plank.svg">
  <defs
     id="defs4089">
    <linearGradient
       inkscape:collect="always"
       xlink:href="#linearGradient3994"
       id="linearGradient4000"
       x1="32.333332"
       y1="53.110497"
       x2="32.333332"
       y2="55.825985"
       gradientUnits="userSpaceOnUse" />
    <linearGradient
       inkscape:collect="always"
       id="linearGradient3994">
      <stop
         style="stop-color:#f7f7f7;stop-opacity:1;"
         offset="0"
         id="stop3996" />
      <stop
         style="stop-color:#f7f7f7;stop-opacity:0;"
         offset="1"
         id="stop3998" />
    </linearGradient>
    <linearGradient
       inkscape:collect="always"
       xlink:href="#linearGradient4002"
       id="linearGradient4008"
       x1="32.333332"
       y1="53.110497"
       x2="32.333332"
       y2="55.825985"
       gradientUnits="userSpaceOnUse" />
    <linearGradient
       inkscape:collect="always"
       id="linearGradient4002">
      <stop
         style="stop-color:#ffffff;stop-opacity:1;"
         offset="0"
         id="stop4004" />
      <stop
         style="stop-color:#ffffff;stop-opacity:0;"
         offset="1"
         id="stop4006" />
    </linearGradient>
    <linearGradient
       inkscape:collect="always"
       xlink:href="#linearGradient3707-319-631-407-324"
       id="linearGradient4009"
       x1="33.076294"
       y1="52.347813"
       x2="33.076294"
       y2="8.136672"
       gradientUnits="userSpaceOnUse"
       gradientTransform="translate(0,-5.999999)" />
    <linearGradient
       id="linearGradient3707-319-631-407-324">
      <stop
         offset="0"
         style="stop-color:#185f9a;stop-opacity:1;"
         id="stop3760" />
      <stop
         offset="1"
         style="stop-color:#599ec9;stop-opacity:1;"
         id="stop3762" />
    </linearGradient>
    <linearGradient
       y2="-61.256123"
       x2="19.874987"
       y1="38.245197"
       x1="19.874987"
       gradientTransform="matrix(-0.5,0,0,0.5,41.431481,39.500001)"
       gradientUnits="userSpaceOnUse"
       id="linearGradient3153-4"
       xlink:href="#linearGradient3707-319-631-407-1-846-5-4-5-2"
       inkscape:collect="always" />
    <linearGradient
       id="linearGradient3707-319-631-407-1-846-5-4-5-2">
      <stop
         id="stop3788-4-8-9-54"
         style="stop-color:#365a7c;stop-opacity:1"
         offset="0" />
      <stop
         id="stop3790-2-1-9-7"
         style="stop-color:#5ea1ca;stop-opacity:1;"
         offset="1" />
    </linearGradient>
    <linearGradient
       inkscape:collect="always"
       xlink:href="#linearGradient8265-821-176-38-919-66-249-7-7"
       id="linearGradient3158"
       gradientUnits="userSpaceOnUse"
       gradientTransform="matrix(1.1723404,0,0,1.8434143,3.8089875,-5.5299719)"
       x1="16.626165"
       y1="15.298182"
       x2="20.054544"
       y2="24.627615" />
    <linearGradient
       id="linearGradient8265-821-176-38-919-66-249-7-7">
      <stop
         id="stop2687-1-9"
         style="stop-color:#ffffff;stop-opacity:1"
         offset="0" />
      <stop
         id="stop2689-5-4"
         style="stop-color:#ffffff;stop-opacity:0"
         offset="1" />
    </linearGradient>
    <linearGradient
       y2="43"
       x2="23.99999"
       y1="4.999989"
       x1="23.99999"
       gradientTransform="matrix(1.4324324,0,0,1.4324324,-2.3783747,-2.3783644)"
       gradientUnits="userSpaceOnUse"
       id="linearGradient3107"
       xlink:href="#linearGradient3924"
       inkscape:collect="always" />
    <linearGradient
       id="linearGradient3924">
      <stop
         id="stop3926"
         style="stop-color:#ffffff;stop-opacity:1"
         offset="0" />
      <stop
         id="stop3928"
         style="stop-color:#ffffff;stop-opacity:0.23529412"
         offset="0.06316455" />
      <stop
         id="stop3930"
         style="stop-color:#ffffff;stop-opacity:0.15686275"
         offset="0.95056331" />
      <stop
         id="stop3932"
         style="stop-color:#ffffff;stop-opacity:0.39215687"
         offset="1" />
    </linearGradient>
    <radialGradient
       inkscape:collect="always"
       xlink:href="#linearGradient2867-449-88-871-390-598-476-591-434-148-57-177"
       id="radialGradient3164"
       gradientUnits="userSpaceOnUse"
       gradientTransform="matrix(2.7399122e-8,3.2957553,-3.4865161,-6.0720391e-8,61.460404,-19.38241)"
       cx="7.4956832"
       cy="8.4497671"
       fx="7.4956832"
       fy="8.4497671"
       r="19.99999" />
    <linearGradient
       id="linearGradient2867-449-88-871-390-598-476-591-434-148-57-177">
      <stop
         offset="0"
         style="stop-color:#90dbec;stop-opacity:1;"
         id="stop3750" />
      <stop
         offset="0.26238"
         style="stop-color:#55c1ec;stop-opacity:1;"
         id="stop3752" />
      <stop
         offset="0.704952"
         style="stop-color:#3689e6;stop-opacity:1;"
         id="stop3754" />
      <stop
         offset="1"
         style="stop-color:#2b63a0;stop-opacity:1;"
         id="stop3756" />
    </linearGradient>
    <linearGradient
       inkscape:collect="always"
       xlink:href="#linearGradient3707-319-631-407-324"
       id="linearGradient3166"
       gradientUnits="userSpaceOnUse"
       gradientTransform="matrix(1.4102565,0,0,1.4102565,-1.8461544,-1.8461542)"
       x1="24"
       y1="44"
       x2="24"
       y2="3.8990016" />
    <radialGradient
       cx="4.9929786"
       cy="43.5"
       r="2.5"
       fx="4.9929786"
       fy="43.5"
       id="radialGradient2873-966-168"
       xlink:href="#linearGradient3688-166-749"
       gradientUnits="userSpaceOnUse"
       gradientTransform="matrix(2.003784,0,0,1.4,27.98813,-17.4)" />
    <linearGradient
       id="linearGradient3688-166-749">
      <stop
         id="stop2883"
         style="stop-color:#181818;stop-opacity:1"
         offset="0" />
      <stop
         id="stop2885"
         style="stop-color:#181818;stop-opacity:0"
         offset="1" />
    </linearGradient>
    <radialGradient
       cx="4.9929786"
       cy="43.5"
       r="2.5"
       fx="4.9929786"
       fy="43.5"
       id="radialGradient2875-742-326"
       xlink:href="#linearGradient3688-464-309"
       gradientUnits="userSpaceOnUse"
       gradientTransform="matrix(2.003784,0,0,1.4,-20.01187,-104.4)" />
    <linearGradient
       id="linearGradient3688-464-309">
      <stop
         id="stop2889"
         style="stop-color:#181818;stop-opacity:1"
         offset="0" />
      <stop
         id="stop2891"
         style="stop-color:#181818;stop-opacity:0"
         offset="1" />
    </linearGradient>
    <linearGradient
       x1="25.058096"
       y1="47.027729"
       x2="25.058096"
       y2="39.999443"
       id="linearGradient2877-634-617"
       xlink:href="#linearGradient3702-501-757"
       gradientUnits="userSpaceOnUse" />
    <linearGradient
       id="linearGradient3702-501-757">
      <stop
         id="stop2895"
         style="stop-color:#181818;stop-opacity:0"
         offset="0" />
      <stop
         id="stop2897"
         style="stop-color:#181818;stop-opacity:1"
         offset="0.5" />
      <stop
         id="stop2899"
         style="stop-color:#181818;stop-opacity:0"
         offset="1" />
    </linearGradient>
  </defs>
  <sodipodi:namedview
     id="base"
     pagecolor="#ffffff"
     bordercolor="#666666"
     borderopacity="1.0"
     inkscape:pageopacity="0.0"
     inkscape:pageshadow="2"
     inkscape:zoom="7.7781746"
     inkscape:cx="33.444881"
     inkscape:cy="36.662548"
     inkscape:current-layer="layer1"
     showgrid="true"
     inkscape:document-units="px"
     inkscape:grid-bbox="true"
     inkscape:window-width="1366"
     inkscape:window-height="718"
     inkscape:window-x="0"
     inkscape:window-y="28"
     inkscape:window-maximized="1" />
  <metadata
     id="metadata4092">
    <rdf:RDF>
      <cc:Work
         rdf:about="">
        <dc:format>image/svg+xml</dc:format>
        <dc:type
           rdf:resource="http://purl.org/dc/dcmitype/StillImage" />
        <dc:title></dc:title>
      </cc:Work>
    </rdf:RDF>
  </metadata>
  <g
     id="layer1"
     inkscape:label="Layer 1"
     inkscape:groupmode="layer">
    <g
       style="display:inline"
       id="g2036"
       transform="matrix(1.5000021,0,0,0.5555561,-4.0000114,35.888881)">
      <g
         style="opacity:0.4"
         id="g3712"
         transform="matrix(1.052632,0,0,1.285713,-1.263158,-13.42854)">
        <rect
           style="fill:url(#radialGradient2873-966-168);fill-opacity:1;stroke:none"
           id="rect2801"
           y="40"
           x="38"
           height="7"
           width="5" />
        <rect
           style="fill:url(#radialGradient2875-742-326);fill-opacity:1;stroke:none"
           id="rect3696"
           transform="scale(-1,-1)"
           y="-47"
           x="-10"
           height="7"
           width="5" />
        <rect
           style="fill:url(#linearGradient2877-634-617);fill-opacity:1;stroke:none"
           id="rect3700"
           y="40"
           x="10"
           height="7.0000005"
           width="28" />
      </g>
    </g>
    <rect
       style="color:#000000;fill:url(#radialGradient3164);fill-opacity:1;fill-rule:nonzero;stroke:url(#linearGradient3166);stroke-width:0.99999994;stroke-linecap:round;stroke-linejoin:round;stroke-miterlimit:4;stroke-opacity:1;stroke-dasharray:none;stroke-dashoffset:0;marker:none;visibility:visible;display:inline;overflow:visible;enable-background:accumulate"
       id="rect5505-21"
       y="4.5"
       x="4.5"
       ry="3"
       rx="3"
       height="55"
       width="55" />
    <rect
       style="opacity:0.5;fill:none;stroke:url(#linearGradient3107);stroke-width:1;stroke-linecap:round;stroke-linejoin:round;stroke-miterlimit:4;stroke-opacity:1;stroke-dasharray:none;stroke-dashoffset:0"
       id="rect6741"
       y="5.5"
       x="5.5"
       ry="2"
       rx="2"
       height="53"
       width="53" />
    <path
       inkscape:connector-curvature="0"
       style="opacity:0.2;fill:url(#linearGradient3158);fill-opacity:1;fill-rule:evenodd;stroke:none"
       id="path3333"
       d="M 6.7293031,5 C 5.7641384,5 5,6.2926588 5,7.5499999 L 5.0179665,39 C 6.5714146,38.965765 57.820897,26.466881 59,25.865671 L 59,7.5499999 C 59,6.5889276 58.245161,5 57.40943,5 L 6.7293072,5 z"
       sodipodi:nodetypes="ccccccc" />
    <path
       style="opacity:0.7;fill:#ffffff;fill-opacity:0.58823529;stroke:#ffffff;stroke-width:0.99999994px;stroke-linecap:butt;stroke-linejoin:miter;stroke-opacity:1"
       d="m 6.5,55.5 51.000001,0 -3.000001,-6 -45,0 z"
       id="path4306"
       inkscape:connector-curvature="0"
       sodipodi:nodetypes="ccccc" />
    <path
       inkscape:connector-curvature="0"
       id="path3130-43"
       style="opacity:0.3;color:#000000;fill:url(#linearGradient3153-4);fill-opacity:1;fill-rule:nonzero;stroke:none;stroke-width:1;marker:none;visibility:visible;display:inline;overflow:visible;enable-background:accumulate"
       d="m 29.530672,44 -7.061343,0 C 21.655322,44 21,44.655321 21,45.469329 l 0,7.061343 C 21,53.34468 21.655322,54 22.469329,54 l 7.061343,0 C 30.34468,54 31,53.34468 31,52.530672 l 0,-7.061343 C 31,44.655321 30.34468,44 29.530672,44 z m 11,0 -7.061343,0 C 32.655322,44 32,44.655321 32,45.469329 l 0,7.061343 C 32,53.34468 32.655322,54 33.469329,54 l 7.061343,0 C 41.34468,54 42,53.34468 42,52.530672 l 0,-7.061343 C 42,44.655321 41.34468,44 40.530672,44 z m 12,0 -7.061343,0 C 44.655322,44 44,44.655321 44,45.469329 l 0,7.061343 C 44,53.34468 44.655322,54 45.469329,54 l 7.061343,0 C 53.34468,54 54,53.34468 54,52.530672 l 0,-7.061343 C 54,44.655321 53.34468,44 52.530672,44 z m -34,0 -7.061343,0 C 10.655322,44 10,44.655321 10,45.469329 l 0,7.061343 C 10,53.34468 10.655322,54 11.469329,54 l 7.061343,0 C 19.34468,54 20,53.34468 20,52.530672 l 0,-7.061343 C 20,44.655321 19.34468,44 18.530672,44 z" />
    <path
       inkscape:connector-curvature="0"
       id="path3090-3"
       style="color:#000000;fill:#f7f7f7;fill-opacity:1;fill-rule:nonzero;stroke:#ffffff;stroke-width:0.98542726;stroke-linecap:butt;stroke-linejoin:miter;stroke-miterlimit:4;stroke-opacity:1;stroke-dashoffset:0;marker:none;visibility:visible;display:inline;overflow:visible;enable-background:accumulate"
       d="m 51.807868,45.492711 -5.615734,0 c -0.387479,0 -0.69942,0.311942 -0.69942,0.69942 l 0,5.615736 c 0,0.387478 0.311941,0.699419 0.69942,0.699419 l 5.615734,0 c 0.387479,0 0.699419,-0.311941 0.699419,-0.699419 l 0,-5.615736 c 0,-0.387478 -0.31194,-0.69942 -0.699419,-0.69942 z m -12,0 -5.615734,0 c -0.387479,0 -0.69942,0.311942 -0.69942,0.69942 l 0,5.615736 c 0,0.387478 0.311941,0.699419 0.69942,0.699419 l 5.615734,0 c 0.387479,0 0.699419,-0.311941 0.699419,-0.699419 l 0,-5.615736 c 0,-0.387478 -0.31194,-0.69942 -0.699419,-0.69942 z m -11,0 -5.615734,0 c -0.387479,0 -0.69942,0.311942 -0.69942,0.69942 l 0,5.615736 c 0,0.387478 0.311941,0.699419 0.69942,0.699419 l 5.615734,0 c 0.387479,0 0.699419,-0.311941 0.699419,-0.699419 l 0,-5.615736 c 0,-0.387478 -0.31194,-0.69942 -0.699419,-0.69942 z m -11,0 -5.615734,0 c -0.387479,0 -0.69942,0.311942 -0.69942,0.69942 l 0,5.615736 c 0,0.387478 0.311941,0.699419 0.69942,0.699419 l 5.615734,0 c 0.387479,0 0.699419,-0.311941 0.699419,-0.699419 l 0,-5.615736 c 0,-0.387478 -0.31194,-0.69942 -0.699419,-0.69942 z" />
    <path
       inkscape:connector-curvature="0"
       id="path3090-3-6"
       style="opacity:0.3;color:#000000;fill:url(#linearGradient4000);fill-opacity:1;fill-rule:nonzero;stroke:url(#linearGradient4008);stroke-width:0.98542726;stroke-linecap:butt;stroke-linejoin:miter;stroke-miterlimit:4;stroke-opacity:1;stroke-dashoffset:0;marker:none;visibility:visible;display:inline;overflow:visible;enable-background:accumulate"
       d="m 51.807868,60.507286 -5.615734,0 c -0.387479,0 -0.69942,-0.311942 -0.69942,-0.69942 l 0,-5.615736 c 0,-0.387478 0.311941,-0.699419 0.69942,-0.699419 l 5.615734,0 c 0.387479,0 0.699419,0.311941 0.699419,0.699419 l 0,5.615736 c 0,0.387478 -0.31194,0.69942 -0.699419,0.69942 z m -12,0 -5.615734,0 c -0.387479,0 -0.69942,-0.311942 -0.69942,-0.69942 l 0,-5.615736 c 0,-0.387478 0.311941,-0.699419 0.69942,-0.699419 l 5.615734,0 c 0.387479,0 0.699419,0.311941 0.699419,0.699419 l 0,5.615736 c 0,0.387478 -0.31194,0.69942 -0.699419,0.69942 z m -11,0 -5.615734,0 c -0.387479,0 -0.69942,-0.311942 -0.69942,-0.69942 l 0,-5.615736 c 0,-0.387478 0.311941,-0.699419 0.69942,-0.699419 l 5.615734,0 c 0.387479,0 0.699419,0.311941 0.699419,0.699419 l 0,5.615736 c 0,0.387478 -0.31194,0.69942 -0.699419,0.69942 z m -11,0 -5.615734,0 c -0.387479,0 -0.69942,-0.311942 -0.69942,-0.69942 l 0,-5.615736 c 0,-0.387478 0.311941,-0.699419 0.69942,-0.699419 l 5.615734,0 c 0.387479,0 0.699419,0.311941 0.699419,0.699419 l 0,5.615736 c 0,0.387478 -0.31194,0.69942 -0.699419,0.69942 z" />
    <path
       style="fill:#f9f9f9;fill-opacity:1;stroke:none;opacity:0.4"
       d="m 45.235921,8.3366135 c -0.767937,-0.276993 -1.595198,-0.408254 -2.463363,-0.408247 -3.890113,0 -7.043662,3.0407885 -7.043662,6.7918015 -8e-6,0.448809 0.04857,0.893049 0.134703,1.317542 l -10.238331,9.872231 c -0.86576,-0.277124 -1.792736,-0.426811 -2.75203,-0.426804 -4.814812,-7e-6 -8.717991,3.763606 -8.717991,8.406255 0,1.289246 0.328104,2.489569 0.866025,3.581462 l 5.157664,-4.973226 4.137668,3.989725 -5.157657,4.973226 c 1.132392,0.518702 2.377228,0.835058 3.714283,0.835058 4.814812,0 8.717982,-3.763604 8.717974,-8.406245 0,-0.931702 -0.154942,-1.817208 -0.442623,-2.653626 l 10.238331,-9.872247 c 0.446968,0.08576 0.912508,0.148459 1.385638,0.148451 3.890105,0 7.043662,-3.040787 7.043662,-6.791802 0,-0.837129 -0.155359,-1.653367 -0.442639,-2.39383 l -2.925232,2.820634 -4.137675,-3.989716 2.925255,-2.8206425 z m -8.756473,9.4083195 c 0.03567,0.06894 0.05819,0.136603 0.09619,0.204155 -0.03743,-0.06632 -0.061,-0.136564 -0.09619,-0.204155 z m 0.596587,0.946403 c 0.02236,0.02983 0.03487,0.06338 0.05771,0.09277 -0.02236,-0.02875 -0.03575,-0.06369 -0.05771,-0.09277 z m -10.238323,7.719639 c -0.184376,-0.09064 -0.385728,-0.181609 -0.577358,-0.259788 0.197329,0.0805 0.387804,0.165896 0.577358,0.259788 z m 3.829763,3.729922 c 0.08283,0.159195 0.158405,0.317786 0.230931,0.482468 -0.0715,-0.163878 -0.149163,-0.324085 -0.230947,-0.48246 z"
       id="path970"
       inkscape:connector-curvature="0" />
    <path
       style="fill:#f9f9f9;fill-opacity:1;stroke:none;opacity:0.4"
       d="m 45.231625,8.3486245 c -0.767921,-0.276993 -1.597651,-0.408656 -2.465808,-0.408656 -3.890113,0 -7.03143,3.0289925 -7.03143,6.7800065 -1.6e-5,0.448808 0.04873,0.894371 0.134847,1.318848 l -10.248551,9.882093 c -0.865768,-0.277116 -1.795485,-0.427236 -2.75478,-0.427229 -2.407406,0 -4.586903,0.930713 -6.164547,2.451954 -1.577645,1.521232 -2.542871,3.62279 -2.542871,5.944114 0,1.289246 0.328962,2.493148 0.866883,3.585041 l 5.16281,-4.978196 2.061267,1.987562 22.134559,-21.343093 -2.061267,-1.987562 2.908888,-2.8048825 z"
       id="rect997"
       inkscape:connector-curvature="0" />
    <path
       style="fill:#f9f9f9;fill-opacity:1;stroke:none;opacity:0.4"
       d="m 19.39221,13.14382 1.266478,3.723175 2.625639,1.39991 5.745515,5.54008 -0.556012,0.53613 -0.278014,2.829609 c 1.258157,0.222518 2.458971,0.762637 3.428773,1.697763 1.782789,1.719041 2.289962,4.180492 1.575392,6.344276 l 0.154445,0.148923 2.563855,2.472179 c 0.02485,0.02396 0.0638,0.01299 0.09265,0.02976 0.103859,0.122659 0.190179,0.242938 0.308906,0.357428 l 3.459666,3.335943 c 1.899544,1.831622 4.958004,1.831629 6.857547,8e-6 l 2.96543,-2.859396 c 1.899544,-1.831629 1.899544,-4.780727 0,-6.612349 l -3.459657,-3.335958 c -0.118736,-0.11449 -0.243491,-0.197678 -0.370675,-0.297853 -0.01763,-0.02775 -0.0064,-0.06546 -0.0311,-0.08928 l -2.7183,-2.621118 c -0.280459,0.08612 -0.546041,0.159967 -0.83401,0.208528 -2.016316,0.344483 -4.185593,-0.223399 -5.745515,-1.72755 -0.978989,-0.943983 -1.565677,-2.110315 -1.791629,-3.335966 l -2.749201,0.14893 -0.710457,0.685054 -5.745515,-5.540073 -1.359162,-2.621102 -3.953902,-1.131852 -0.741149,0.714802 z m 18.503022,20.641245 c 0.40216,-0.38778 1.049679,-0.357969 1.451823,0.02976 l 5.004165,4.825216 c 0.40216,0.387765 0.402152,0.982358 8e-6,1.37013 -0.40216,0.387772 -1.049686,0.417544 -1.45183,0.02976 l -5.004166,-4.825232 c -0.402152,-0.38771 -0.402144,-1.041863 0,-1.429628 z m 3.645003,-3.514676 c 0.402161,-0.387772 1.080555,-0.387772 1.482707,0 l 5.004166,4.825231 c 0.402144,0.387765 0.371252,1.012146 -0.03086,1.399918 -0.402145,0.387765 -1.018795,0.387765 -1.420923,-8e-6 l -5.004173,-4.825231 c -0.402177,-0.387772 -0.433061,-1.012138 -0.03094,-1.39991 z"
       id="rect888"
       inkscape:connector-curvature="0" />
    <path
       style="fill:#f9f9f9;fill-opacity:1;stroke:none;opacity:0.4"
       d="m 34.645167,20.883392 -2.751613,0.157618 -0.708333,0.683005 -0.08169,-0.07877 -2.152252,2.075294 0.08169,0.07877 -0.572115,0.551658 -0.272436,2.810842 c 1.258158,0.222519 2.462899,0.772392 3.432702,1.707517 1.782788,1.719041 2.294706,4.193447 1.580137,6.35723 l 0.163454,0.131347 2.560914,2.469335 c 0.02485,0.02396 0.0529,0.0095 0.08169,0.0262 0.103859,0.122659 0.180945,0.253295 0.29968,0.367777 l 3.459947,3.336229 c 1.899544,1.831622 4.965866,1.831622 6.86541,0 l 2.969558,-2.863376 c 1.899544,-1.831629 1.899544,-4.788302 0,-6.619923 l -3.459946,-3.309966 c -0.118728,-0.114482 -0.254224,-0.215052 -0.381408,-0.315228 -0.01763,-0.02775 -0.0024,-0.05495 -0.02717,-0.07877 l -2.697123,-2.626962 c -0.280458,0.08612 -0.556581,0.161599 -0.844558,0.21016 -2.016308,0.344482 -4.188487,-0.229637 -5.748417,-1.733788 -0.979013,-0.94396 -1.572161,-2.110562 -1.798114,-3.336206 z m 7.628234,9.08926 c 0.270135,0 0.561743,0.09508 0.762823,0.288965 l 4.985593,4.833594 c 0.402145,0.387764 0.374867,1.004509 -0.02717,1.392281 -0.402144,0.387765 -1.014538,0.387772 -1.416674,0 l -5.012838,-4.807323 c -0.402176,-0.387772 -0.429389,-1.03078 -0.02717,-1.418552 0.200944,-0.193883 0.465307,-0.288965 0.735442,-0.288965 z m -3.650654,3.546381 c 0.262415,0.0077 0.534506,0.0951 0.735578,0.288964 l 4.985593,4.833594 c 0.40216,0.387765 0.402144,0.978246 0,1.366019 -0.40216,0.387772 -1.041767,0.414058 -1.443911,0.0262 l -5.012839,-4.807331 c -0.402152,-0.387718 -0.402144,-1.057058 0,-1.444823 0.201081,-0.193813 0.473155,-0.270067 0.735579,-0.262624 z"
       id="path937"
       inkscape:connector-curvature="0" />
    <path
       style="fill:#f9f9f9;fill-opacity:1;stroke:none;opacity:0.4"
       d="m 30.258935,22.459562 -1.307694,1.260935 0.08169,0.07877 -0.572123,0.551667 -0.272436,2.810834 c 1.258166,0.222526 2.462899,0.772391 3.43271,1.707525 1.782788,1.719033 2.294698,4.193438 1.580129,6.357222 l 0.163462,0.131347 2.560906,2.469343 c 0.02485,0.02396 0.0529,0.0095 0.08169,0.0262 0.103858,0.122652 0.180953,0.253288 0.29968,0.36777 l 3.459955,3.336236 c 1.899535,1.831622 4.965858,1.831622 6.865402,0 l 1.907057,-1.838874 C 41.400972,32.829844 30.406967,22.597209 30.258935,22.459562 z m 8.363812,11.059471 c 0.262415,0.0077 0.534506,0.0951 0.735578,0.288964 l 4.985593,4.833594 c 0.40216,0.387765 0.402144,0.978246 0,1.366019 -0.40216,0.387772 -1.041767,0.414058 -1.443911,0.0262 l -5.012839,-4.807331 c -0.402152,-0.387718 -0.402144,-1.057058 0,-1.444823 0.201081,-0.193813 0.473155,-0.270067 0.735579,-0.262624 z"
       id="path942"
       inkscape:connector-curvature="0" />
    <path
       style="fill:#f9f9f9;fill-opacity:1;stroke:none;opacity:0.4"
       d="m 19.879088,12.661028 -0.490389,0.472845 1.280457,3.730277 2.615396,1.39229 5.666689,5.464057 1.198721,-1.155859 -10.270874,-9.90361 z"
       id="path947"
       inkscape:connector-curvature="0" />
  </g>
</svg>
